<svg xmlns="http://www.w3.org/2000/svg" fill="none" viewBox="0 0 250 250">
    <path fill="#292929" d="M0 0h250v250H0z" />
    <path fill="#E9FF5F" fill-rule="evenodd"
        d="M60 88.703h18.622v7.027H67.027v18.973h11.595v7.027H60V88.703Zm0 39.352h7.027v25.824h11.595v7.027H60v-32.851Zm41.459-39.352H82.838v33.027h18.621v-7.027H89.865V95.73h11.594v-7.027Zm-18.621 72.379v-32.676h7.027v32.676h-7.027ZM190 88.703h-84.324v33.027H190V88.703Zm-77.297 26V95.73h70.27v18.973h-70.27Zm-18.27 13.352h86.08v13h8.784v20.027H94.432v-33.027Zm7.026 13h72.027v-5.973h-72.027v5.973Zm0 7.027v5.973h80.811v-5.973h-80.811Z"
        clip-rule="evenodd" />
</svg>